<svg width="107" height="107" fill="none" xmlns="http://www.w3.org/2000/svg"><path d="M94.073 53.597l-.154 1.805 4.544.387.153-1.806.813.07-.235 2.762-1.554-.133-.005.06c.475.169.834.44 1.075.814.248.383.349.849.302 1.399l-.073.86-.956-.08.098-1.16c.047-.55-.075-1.01-.364-1.38-.29-.362-.695-.565-1.213-.61l-2.666-.226-.204 2.391-.813-.069.439-5.153.813.069zm-2.383 9.732c.117-.433.296-.803.537-1.11.238-.3.526-.537.864-.711.342-.164.72-.26 1.135-.29a4.12 4.12 0 011.339.152c.478.13.893.313 1.243.549.349.243.626.521.831.834.213.315.348.658.405 1.03.055.38.026.774-.084 1.183-.11.401-.281.744-.516 1.029a2.499 2.499 0 01-.843.68c-.317.162-.67.257-1.059.284a3.668 3.668 0 01-1.22-.132l-.44-.12 1.199-4.423-.278-.076a2.114 2.114 0 00-.764-.07 1.77 1.77 0 00-.677.202 1.825 1.825 0 00-.539.475c-.148.21-.26.452-.334.73-.11.402-.11.775-.005 1.118.106.344.3.637.583.879l-.649.558c-.353-.287-.605-.674-.754-1.162-.144-.478-.136-1.015.025-1.61zm5.505 1.43a1.84 1.84 0 00-.176-1.416 1.929 1.929 0 00-.479-.527 2.019 2.019 0 00-.683-.322l-.081-.022-.93 3.428.128.035c.263.07.514.093.753.067.237-.019.453-.08.647-.185.2-.095.37-.236.512-.421.139-.178.242-.39.31-.637zm-8.756 7.326c.161-.34.363-.54.606-.602a1.4 1.4 0 01.779.039l.025-.054a1.756 1.756 0 01-.485-.963c-.053-.353.029-.757.246-1.212.279-.585.652-.978 1.121-1.18.469-.202.966-.178 1.494.074.52.248.83.626.933 1.136.1.517-.052 1.198-.455 2.043l-.568 1.191.552.264c.412.196.774.227 1.086.092.32-.131.581-.41.784-.836.18-.375.25-.718.212-1.03a1.801 1.801 0 00-.322-.857l.712-.379c.11.141.204.306.283.494.079.188.126.397.14.626.023.232.008.477-.045.736a3.142 3.142 0 01-.269.815c-.313.658-.727 1.098-1.242 1.323-.518.231-1.073.206-1.665-.076l-3.076-1.467-.372.78-.758-.361.284-.596zm1.824-2.294a2.491 2.491 0 00-.213.643 2.243 2.243 0 00-.016.59c.029.182.087.339.175.47.093.14.21.246.355.315l.921.439.568-1.192c.248-.52.356-.933.326-1.24a.767.767 0 00-.458-.657l-.228-.109c-.289-.138-.557-.142-.805-.012-.244.14-.453.392-.625.753zm-4.417 8.124l.028-.039c-.391-.772-.333-1.513.175-2.221.442-.618 1.02-.937 1.733-.958.71-.014 1.48.277 2.312.874.833.596 1.356 1.232 1.571 1.907.21.682.094 1.332-.348 1.95-.508.709-1.19 1.002-2.048.88l-.028.04 3.005 2.152-.56.78-7.218-5.171.559-.78.82.587zm.679-1.462a2.176 2.176 0 00-.288.547 1.636 1.636 0 00-.099.55c.007.181.05.35.126.503.08.165.203.307.372.429l1.815 1.3c.169.12.34.19.516.207.176.028.349.013.517-.043a1.49 1.49 0 00.499-.263c.157-.124.298-.273.424-.449.326-.455.44-.91.343-1.363-.097-.443-.372-.828-.828-1.154l-.858-.615c-.455-.326-.911-.466-1.368-.419-.455.058-.845.315-1.171.77zm-4.928 4.998l4.015 4.715-.676.575-.467-.548-.036.031c.082.245.111.489.086.73-.025.243-.169.475-.43.698-.275.234-.538.337-.792.311a1.182 1.182 0 01-.698-.32l-.027.024c.096.286.125.566.086.841-.04.275-.199.532-.479.77-.384.327-.754.411-1.11.252-.362-.154-.756-.48-1.181-.98l-2.785-3.27.676-.576 2.684 3.151c.342.402.62.643.836.723.214.09.43.043.65-.144a.823.823 0 00.311-.596c.018-.226-.081-.466-.3-.722l-2.948-3.463.676-.576 2.684 3.152c.343.402.621.643.836.723.214.09.428.045.641-.136a.861.861 0 00.32-.604c.019-.226-.081-.467-.299-.722l-2.949-3.463.676-.576zm-8.077 5.954c.372-.218.749-.35 1.13-.398a2.547 2.547 0 011.093.11c.353.128.684.328.992.602.313.28.594.634.845 1.062.247.421.416.837.508 1.247.092.41.105.796.039 1.159a2.482 2.482 0 01-.433 1.018c-.227.31-.526.573-.9.791a2.851 2.851 0 01-1.119.392c-.38.047-.747.006-1.1-.12a2.805 2.805 0 01-1.002-.596 4.353 4.353 0 01-.839-1.052 4.4 4.4 0 01-.513-1.257 2.943 2.943 0 01-.03-1.165 2.41 2.41 0 01.44-1.008c.22-.305.516-.567.889-.785zm.418.714c-.462.271-.754.628-.876 1.07-.12.442-.012.952.328 1.532l.449.766c.34.58.732.925 1.177 1.036.444.11.898.03 1.36-.241.463-.271.755-.627.876-1.07.121-.441.012-.952-.328-1.532l-.448-.766c-.34-.58-.732-.925-1.177-1.035-.445-.11-.898-.03-1.36.24zm-3.958 2.335l-1.7.624 1.57 4.28 1.7-.623.282.766-2.603.955-.537-1.465-.056.02c.048.503-.047.942-.284 1.319-.241.387-.621.675-1.14.865l-.81.298-.331-.902 1.093-.4c.518-.19.883-.495 1.096-.914.206-.416.219-.868.04-1.356l-.922-2.513-2.253.826-.28-.766 4.855-1.78.28.766zm-9.772 1.92a3.088 3.088 0 011.233.016c.373.089.71.25 1.01.48.294.242.541.544.743.906.203.37.346.797.43 1.277.086.489.096.942.031 1.36a3.106 3.106 0 01-.403 1.105 2.483 2.483 0 01-.761.803c-.32.21-.69.353-1.108.426-.41.071-.793.061-1.15-.03a2.497 2.497 0 01-.973-.476 2.717 2.717 0 01-.707-.839 3.67 3.67 0 01-.398-1.16l-.078-.45 4.515-.79-.05-.283a2.116 2.116 0 00-.26-.722 1.768 1.768 0 00-.47-.527 1.824 1.824 0 00-.659-.287 2.286 2.286 0 00-.803.006c-.41.072-.748.229-1.014.47-.266.242-.45.542-.549.9l-.78-.35c.11-.442.354-.834.732-1.176.372-.333.862-.553 1.469-.66zm1.039 5.593a1.838 1.838 0 001.207-.76 1.93 1.93 0 00.275-.657 2.02 2.02 0 00.002-.756l-.015-.082-3.499.612.023.13c.047.268.133.504.258.71.118.207.265.376.442.507.171.14.37.236.599.285.22.051.456.055.708.01zm-8.206-3.907l-1.807-.132-.334 4.548 1.808.133-.06.814-2.765-.204.114-1.555-.06-.005c-.163.478-.43.839-.8 1.084-.38.253-.846.36-1.396.32l-.862-.064.07-.957 1.162.085c.55.04 1.009-.087 1.375-.38.359-.295.557-.702.595-1.22l.196-2.67-2.394-.175.06-.814 5.158.38-.06.813zm-9.681-2.271c.433.112.805.287 1.115.524.303.235.543.52.721.856.168.34.269.718.302 1.132.032.42-.014.868-.136 1.34-.124.48-.303.897-.534 1.25-.24.351-.515.631-.825.84a2.483 2.483 0 01-1.025.417 2.905 2.905 0 01-1.184-.071 2.705 2.705 0 01-1.035-.504 2.498 2.498 0 01-.689-.835 2.716 2.716 0 01-.297-1.056 3.67 3.67 0 01.118-1.221l.114-.442 4.438 1.149.072-.279c.069-.263.089-.518.062-.765a1.766 1.766 0 00-.21-.674 1.821 1.821 0 00-.481-.534 2.284 2.284 0 00-.734-.326c-.403-.104-.776-.101-1.118.008-.342.11-.633.308-.872.593l-.565-.642c.282-.357.666-.613 1.153-.768.477-.15 1.013-.147 1.61.008zm-1.368 5.521a1.84 1.84 0 001.413-.192c.197-.122.371-.284.523-.484a2.04 2.04 0 00.314-.688l.02-.081-3.438-.89-.033.128a2.017 2.017 0 00-.059.753c.022.237.086.452.193.645.097.199.24.368.427.507.179.137.392.238.64.302zm-7.393-8.657c.342.157.545.356.61.597.066.241.057.5-.027.78l.055.024c.273-.27.592-.437.955-.499.352-.058.757.017 1.215.228.59.27.989.638 1.198 1.103.209.466.191.964-.052 1.495-.24.523-.614.84-1.123.95-.515.107-1.198-.035-2.049-.425l-1.2-.55-.255.556c-.19.415-.215.777-.076 1.087.136.318.418.575.847.772.379.173.723.239 1.033.196a1.8 1.8 0 00.853-.335l.389.707c-.14.112-.303.209-.49.29a1.939 1.939 0 01-.623.15 2.5 2.5 0 01-.737-.034 3.146 3.146 0 01-.82-.257c-.661-.304-1.108-.711-1.34-1.222-.24-.515-.222-1.07.051-1.667l1.421-3.098-.785-.36.35-.763.6.275zm2.32 1.79a2.494 2.494 0 00-.645-.203 2.245 2.245 0 00-.591-.007 1.141 1.141 0 00-.466.182.861.861 0 00-.31.36l-.426.926 1.2.55c.524.24.939.343 1.245.308a.767.767 0 00.65-.468l.106-.229c.133-.29.133-.56 0-.805-.145-.243-.399-.447-.762-.614zm-8.184-4.328l.04.028c.768-.4 1.509-.35 2.223.15.623.436.948 1.01.977 1.723.021.709-.262 1.483-.849 2.321-.587.84-1.217 1.37-1.89 1.592-.68.218-1.33.109-1.953-.327-.715-.5-1.016-1.18-.903-2.038l-.04-.027-2.119 3.028-.786-.55 5.092-7.276.786.55-.578.826zm1.47.663a2.175 2.175 0 00-.55-.282 1.633 1.633 0 00-.55-.093 1.23 1.23 0 00-.503.132 1.12 1.12 0 00-.424.377l-1.28 1.828a1.06 1.06 0 00-.201.519c-.027.176-.01.349.048.517.053.174.143.339.268.495.125.156.276.296.453.42.46.32.915.43 1.368.327.442-.101.823-.38 1.144-.84l.606-.865c.32-.459.455-.916.404-1.372-.063-.454-.324-.842-.783-1.163zm-5.043-4.861l-4.67 4.066-.584-.67.543-.473-.031-.036a1.711 1.711 0 01-.73.094c-.242-.022-.476-.163-.702-.423-.236-.271-.343-.534-.32-.787.018-.249.122-.483.313-.702l-.024-.027a1.81 1.81 0 01-.84.095c-.276-.036-.534-.193-.776-.47-.33-.38-.419-.75-.263-1.107.15-.364.472-.761.967-1.192l3.24-2.821.583.67-3.123 2.718c-.398.347-.636.628-.713.844-.088.215-.038.431.15.648a.823.823 0 00.6.305c.226.016.466-.087.72-.307l3.43-2.987.583.67-3.123 2.719c-.398.346-.636.628-.713.843-.089.215-.041.428.143.64.168.193.37.297.608.314.225.016.465-.087.718-.308l3.43-2.986.584.67zm-6.028-7.983c.223.37.36.746.41 1.126.047.373.014.738-.098 1.095-.123.354-.32.687-.59.998a4.395 4.395 0 01-1.053.857 4.357 4.357 0 01-1.24.521 2.907 2.907 0 01-1.16.052 2.483 2.483 0 01-1.023-.42 2.938 2.938 0 01-.8-.892 2.851 2.851 0 01-.405-1.115 2.351 2.351 0 01.109-1.1c.112-.358.307-.694.584-1.01a4.37 4.37 0 011.043-.85 4.397 4.397 0 011.25-.528 2.938 2.938 0 011.166-.041 2.41 2.41 0 011.012.427c.308.217.573.51.795.88zm-.71.427c-.276-.46-.635-.748-1.078-.864-.444-.116-.953-.001-1.53.345l-.76.457c-.576.346-.917.742-1.023 1.188-.105.446-.02.898.256 1.358.276.46.636.747 1.08.864.442.116.952.001 1.528-.345l.761-.457c.576-.346.917-.742 1.022-1.188.106-.446.02-.899-.256-1.358zm-2.374-3.899l-.644-1.695-4.263 1.618.643 1.694-.763.29-.983-2.592 1.458-.553-.021-.056c-.502.053-.942-.036-1.322-.269-.39-.237-.682-.614-.878-1.13l-.306-.808.897-.34.413 1.088c.196.516.505.878.926 1.086.418.2.87.209 1.357.024l2.502-.95-.852-2.243.763-.29 1.835 4.836-.763.29zm-2.033-9.692c.082.44.082.852-.002 1.234a2.64 2.64 0 01-.469 1.015 3.104 3.104 0 01-.897.754 4.118 4.118 0 01-1.272.445 4.16 4.16 0 01-1.358.046 3.106 3.106 0 01-1.111-.39 2.49 2.49 0 01-.812-.752 2.906 2.906 0 01-.438-1.103 2.706 2.706 0 01.017-1.15c.087-.367.241-.693.465-.978a2.7 2.7 0 01.83-.717c.338-.193.724-.33 1.156-.411l.449-.084.841 4.506.283-.053c.268-.05.507-.14.72-.268.211-.13.385-.288.52-.476.135-.196.228-.417.28-.663.042-.252.037-.52-.016-.802-.076-.41-.237-.746-.481-1.01a1.862 1.862 0 00-.906-.538l.341-.784c.443.104.838.344 1.184.719.338.368.563.855.676 1.46zm-5.58 1.104a1.839 1.839 0 00.773 1.198c.195.127.415.216.66.268.237.045.489.043.756-.007l.083-.016-.653-3.491-.13.024c-.267.05-.503.139-.707.266a1.61 1.61 0 00-.502.448 1.389 1.389 0 00-.278.601 1.77 1.77 0 00-.002.709zm3.781-8.215l.112-1.809-4.552-.28-.112 1.808-.814-.05.171-2.767 1.557.096.004-.06c-.48-.158-.844-.42-1.094-.789-.257-.377-.368-.84-.334-1.391l.053-.863.958.06-.072 1.161c-.034.551.098 1.008.396 1.371.3.355.708.55 1.227.581l2.67.165.149-2.395.814.05-.319 5.162-.814-.05zm2.157-9.806a3.087 3.087 0 01-.511 1.122 2.638 2.638 0 01-.848.73 3.102 3.102 0 01-1.128.315 4.116 4.116 0 01-1.342-.121 4.157 4.157 0 01-1.256-.52 3.105 3.105 0 01-.85-.815c-.22-.31-.363-.65-.428-1.02a2.906 2.906 0 01.057-1.185c.1-.404.264-.75.492-1.04.23-.298.506-.531.827-.699.314-.17.665-.273 1.053-.309a3.668 3.668 0 011.223.104l.442.11-1.098 4.45.28.069c.264.065.52.083.766.053.246-.03.47-.103.671-.218.204-.122.38-.285.528-.487.143-.212.25-.458.318-.738.1-.404.093-.776-.02-1.117a1.862 1.862 0 00-.603-.866l.636-.572c.36.278.62.66.78 1.144.155.475.159 1.011.011 1.61zm-5.537-1.304a1.839 1.839 0 00.208 1.41c.125.196.289.368.491.517a2 2 0 00.69.306l.082.02.851-3.448-.128-.032a2.017 2.017 0 00-.754-.05 1.6 1.6 0 00-.643.2c-.197.1-.365.244-.502.432a1.787 1.787 0 00-.295.645zm8.509-7.377c-.153.344-.35.55-.59.618-.24.068-.5.061-.78-.02l-.024.056c.274.27.444.587.51.95.062.35-.009.757-.214 1.217-.263.592-.627.995-1.09 1.21-.463.214-.961.202-1.495-.035-.526-.235-.847-.605-.963-1.112-.113-.514.021-1.199.402-2.054l.537-1.206-.56-.249c-.416-.185-.778-.207-1.087-.064-.316.14-.57.425-.762.856-.17.38-.231.725-.185 1.035a1.8 1.8 0 00.345.849l-.703.397a2.142 2.142 0 01-.295-.486 1.943 1.943 0 01-.157-.622 2.5 2.5 0 01.026-.737c.038-.263.12-.537.248-.822.296-.666.698-1.117 1.207-1.355.511-.245 1.067-.234 1.666.033l3.114 1.386.351-.79.768.342-.269.603zm-1.764 2.341c.1-.227.166-.443.196-.648a2.249 2.249 0 000-.591 1.142 1.142 0 00-.187-.464.862.862 0 00-.363-.306l-.931-.415-.537 1.206c-.234.526-.332.942-.293 1.248a.767.767 0 00.475.645l.23.103c.292.13.56.127.805-.01.24-.146.442-.403.605-.768zm4.298-8.385l-.027.04c.408.763.366 1.505-.126 2.225-.429.627-1 .96-1.712.995-.708.03-1.485-.244-2.33-.822-.846-.578-1.383-1.203-1.613-1.873-.225-.677-.123-1.33.306-1.957.492-.72 1.168-1.028 2.028-.925l.027-.04-3.052-2.085.542-.793 7.331 5.011-.542.793-.832-.569zm-.646 1.477c.122-.178.214-.363.276-.553.062-.19.09-.373.086-.551A1.217 1.217 0 0019.46 29a1.127 1.127 0 00-.381-.42l-1.843-1.26a1.06 1.06 0 00-.52-.196 1.074 1.074 0 00-.517.054 1.493 1.493 0 00-.492.274 2.18 2.18 0 00-.415.458c-.316.462-.42.919-.312 1.37.106.441.39.82.852 1.136l.872.596c.462.316.921.445 1.377.388.453-.067.838-.333 1.154-.795zm4.642-4.947l-4.133-4.61.661-.593.48.536.036-.032a1.713 1.713 0 01-.104-.728c.019-.243.156-.479.412-.709.268-.24.53-.35.783-.33.249.013.484.113.706.301l.027-.024a1.81 1.81 0 01-.108-.838c.033-.276.186-.537.46-.783.375-.336.743-.43 1.103-.28.366.145.768.462 1.206.95l2.867 3.199-.661.593-2.764-3.083c-.352-.393-.637-.627-.854-.7-.216-.086-.431-.033-.646.16a.823.823 0 00-.296.604c-.012.226.094.463.318.714l3.036 3.386-.661.593L22.98 20.9c-.352-.393-.637-.627-.854-.7-.216-.086-.429-.035-.637.151a.862.862 0 00-.305.613c-.013.226.093.464.317.714l3.036 3.386-.66.593zm8.013-6.242a2.935 2.935 0 01-1.122.423 2.547 2.547 0 01-1.096-.086 3.055 3.055 0 01-1.004-.58 4.394 4.394 0 01-.869-1.043 4.353 4.353 0 01-.535-1.235 2.905 2.905 0 01-.064-1.158c.06-.375.196-.718.41-1.028.22-.314.514-.584.881-.81a2.85 2.85 0 011.111-.417c.38-.055.747-.023 1.102.097.358.108.697.299 1.015.572.32.274.606.618.862 1.034.26.422.44.837.542 1.245.096.4.114.789.054 1.164a2.409 2.409 0 01-.416 1.018c-.213.31-.504.578-.872.804zm-.435-.705c.457-.281.74-.644.852-1.088.111-.445-.009-.953-.361-1.525l-.466-.756c-.352-.572-.752-.909-1.2-1.01-.446-.1-.898-.01-1.354.271-.457.282-.74.644-.852 1.089-.112.444.009.953.361 1.525l.466.756c.352.572.752.909 1.199 1.009.447.1.899.01 1.355-.27zm3.848-2.428l1.687-.662-1.666-4.244-1.687.662-.298-.76 2.58-1.013.57 1.453.056-.022c-.06-.501.026-.943.254-1.325.233-.392.606-.689 1.12-.89l.804-.316.35.894-1.083.425c-.514.202-.872.514-1.076.938-.195.42-.198.873-.008 1.357l.977 2.49 2.234-.876.298.76-4.814 1.889-.298-.76zm9.604-2.149a3.09 3.09 0 01-1.233.012 2.639 2.639 0 01-1.02-.458c-.3-.234-.555-.53-.765-.888a4.118 4.118 0 01-.46-1.267 4.162 4.162 0 01-.061-1.358c.063-.42.19-.792.378-1.115.187-.33.435-.604.742-.82a2.906 2.906 0 011.098-.45c.408-.082.791-.08 1.15.003a2.5 2.5 0 01.984.453c.286.213.528.487.726.823.197.336.338.72.424 1.151l.089.447-4.496.894.056.282c.053.267.145.505.277.716.131.21.292.382.482.516.197.132.419.222.665.271.253.04.52.032.803-.024.408-.082.742-.246 1.003-.493.26-.248.437-.552.528-.913l.788.333c-.1.444-.334.841-.705 1.192-.364.342-.849.573-1.453.693zM43.74 8.566a1.839 1.839 0 00-1.19.787 1.93 1.93 0 00-.26.664 2.02 2.02 0 00.016.755l.017.082 3.483-.692-.025-.13a2.02 2.02 0 00-.275-.703 1.612 1.612 0 00-.453-.497 1.389 1.389 0 00-.605-.272 1.77 1.77 0 00-.708.006zm8.267 3.649l1.81.09.229-4.553-1.81-.091.04-.815 2.77.139-.079 1.558.06.003c.152-.481.411-.849.776-1.103.374-.261.836-.378 1.388-.35l.862.043-.048.959-1.162-.059c-.552-.027-1.007.11-1.367.412-.351.303-.54.714-.566 1.233l-.134 2.673 2.397.12-.041.815-5.166-.259.041-.815zm9.963 2.048a3.088 3.088 0 01-1.128-.5 2.638 2.638 0 01-.74-.838 3.103 3.103 0 01-.327-1.125 4.119 4.119 0 01.105-1.343c.113-.483.282-.904.506-1.262.231-.357.5-.643.805-.859a2.49 2.49 0 011.015-.44 2.906 2.906 0 011.186.044c.405.095.753.255 1.046.48.3.226.536.5.707.82.174.311.28.66.321 1.048.04.388.011.796-.09 1.224l-.104.444-4.463-1.047-.065.28c-.062.265-.077.52-.044.767.032.245.107.469.225.669.125.201.29.376.493.522.214.14.46.244.741.31.405.095.778.083 1.117-.034.34-.118.627-.322.859-.612l.58.629c-.275.363-.653.627-1.136.793-.473.16-1.01.17-1.609.03zm1.24-5.552a1.838 1.838 0 00-1.407.225 1.928 1.928 0 00-.511.496 2.02 2.02 0 00-.299.694l-.02.082 3.46.811.03-.128c.061-.265.075-.517.04-.755a1.611 1.611 0 00-.207-.64 1.388 1.388 0 00-.438-.497 1.77 1.77 0 00-.647-.288zm7.455 8.412c-.346-.149-.553-.343-.624-.583a1.4 1.4 0 01.01-.78l-.055-.024c-.268.277-.582.45-.944.521-.351.066-.758 0-1.22-.2-.596-.257-1.003-.616-1.222-1.076-.22-.461-.213-.96.018-1.496.228-.529.596-.854 1.101-.975.513-.119 1.2.008 2.058.379l1.212.523.243-.562c.18-.418.198-.781.052-1.088-.143-.315-.431-.566-.865-.753-.382-.165-.727-.223-1.036-.173a1.8 1.8 0 00-.846.354l-.404-.698c.137-.115.298-.215.483-.3a1.94 1.94 0 01.62-.165c.23-.03.476-.025.737.018.263.036.538.115.825.239.668.288 1.124.686 1.367 1.191.251.51.246 1.065-.014 1.668l-1.35 3.128.793.343-.333.771-.606-.262zm-2.36-1.738c.227.099.444.162.65.19.216.023.413.021.59-.007.181-.035.335-.1.463-.192a.86.86 0 00.302-.367l.404-.936-1.212-.523c-.529-.229-.946-.322-1.252-.28a.767.767 0 00-.64.483l-.1.23c-.126.295-.12.563.02.806.149.239.407.438.774.596zm8.261 4.075l-.04-.027c-.758.42-1.5.389-2.227-.093-.634-.42-.974-.986-1.02-1.698-.04-.707.222-1.488.788-2.342.565-.854 1.182-1.4 1.849-1.64.674-.235 1.327-.142 1.96.277.728.482 1.046 1.153.956 2.014l.04.027 2.04-3.081.8.53-4.903 7.403-.8-.53.557-.84zm-1.487-.625c.18.12.366.209.557.268.19.06.375.085.553.078a1.22 1.22 0 00.498-.144c.162-.085.3-.214.415-.388l1.233-1.86c.115-.174.177-.348.188-.524.022-.177.001-.35-.061-.515a1.49 1.49 0 00-.282-.489 2.175 2.175 0 00-.463-.408c-.467-.309-.926-.406-1.376-.292-.439.112-.813.402-1.122.869l-.583.88c-.31.467-.432.928-.369 1.383.075.452.345.833.812 1.142zm5.244 4.758l4.565-4.184.6.655-.53.486.032.036c.242-.092.484-.13.727-.113.242.016.48.151.712.405.244.265.357.525.34.78-.01.248-.109.484-.294.708l.024.027c.282-.107.562-.146.838-.117.276.03.538.18.787.45.34.373.438.74.292 1.1-.141.368-.453.774-.937 1.217l-3.167 2.902-.6-.654 3.052-2.797c.39-.357.62-.644.692-.862.083-.217.027-.432-.167-.644a.823.823 0 00-.608-.29c-.226-.01-.463.099-.71.326l-3.353 3.072-.6-.654 3.052-2.797c.39-.357.62-.644.691-.862.084-.217.03-.429-.159-.636a.862.862 0 00-.615-.298c-.226-.01-.463.099-.71.326l-3.354 3.072-.6-.654zm6.328 7.95a2.936 2.936 0 01-.435-1.116 2.547 2.547 0 01.074-1.097 3.06 3.06 0 01.568-1.011c.27-.322.615-.615 1.034-.88.413-.26.823-.443 1.23-.548a2.907 2.907 0 011.157-.078c.376.056.72.189 1.032.399.316.216.59.507.82.872.23.366.373.735.428 1.107.06.378.032.746-.084 1.103a2.79 2.79 0 01-.561 1.021c-.27.322-.612.613-1.024.873a4.39 4.39 0 01-1.24.555 2.94 2.94 0 01-1.163.068 2.408 2.408 0 01-1.022-.405 2.85 2.85 0 01-.814-.863zm.7-.442c.287.453.652.733 1.098.84.446.106.953-.02 1.521-.378l.75-.474c.57-.359.901-.762.997-1.21.095-.449 0-.9-.286-1.353-.286-.453-.652-.733-1.098-.84-.445-.106-.952.02-1.52.379l-.752.474c-.568.358-.9.762-.995 1.21-.096.448 0 .899.285 1.352zm2.471 3.839l.68 1.679 4.226-1.714-.68-1.679.756-.307 1.041 2.57-1.445.585.022.056c.5-.065.943.015 1.327.239.395.228.696.598.903 1.11l.325.8-.89.361-.437-1.078c-.208-.512-.524-.867-.95-1.066-.423-.19-.875-.189-1.357.007l-2.48 1.005.902 2.224-.756.307-1.944-4.793.757-.307zm2.258 9.628a3.087 3.087 0 01-.027-1.233c.076-.376.225-.718.446-1.026.23-.302.524-.56.88-.774a4.118 4.118 0 011.26-.474 4.158 4.158 0 011.358-.077c.421.058.794.18 1.12.365.332.183.608.427.828.733.221.313.376.677.463 1.092.086.407.089.79.01 1.15a2.498 2.498 0 01-.442.989c-.21.289-.48.534-.814.735a3.666 3.666 0 01-1.147.438l-.446.094-.945-4.486-.281.06a2.114 2.114 0 00-.713.285 1.766 1.766 0 00-.51.487c-.13.2-.218.422-.264.669a2.26 2.26 0 00.034.802c.085.407.254.74.504.998s.557.43.919.517l-.324.792c-.445-.094-.845-.325-1.2-.691-.346-.36-.582-.842-.71-1.445zm5.553-1.231a1.839 1.839 0 00-.8-1.18 1.927 1.927 0 00-.667-.252 2.019 2.019 0 00-.755.024l-.082.017.732 3.476.13-.027c.265-.057.499-.15.7-.283a1.61 1.61 0 00.492-.46 1.39 1.39 0 00.264-.607 1.77 1.77 0 00-.014-.708z" fill="#C8C8C8"/><path d="M44 57.5l9 9 9-9m-9-18v26.25" stroke="#C8C8C8" stroke-linecap="square"/></svg>