<svg width="298" height="266" fill="none" xmlns="http://www.w3.org/2000/svg"><path fill="#D8B365" stroke="#242321" d="M.5 19.679h234.887v198.596H.5z"/><path fill="#35A7A8" stroke="#242321" d="M13.462 30.047h208.965V176.8H13.462zm87.208 193.566a6.501 6.501 0 016.13-4.338h22.985c2.8 0 5.286 1.794 6.169 4.451l8.266 24.882c1.398 4.208-1.734 8.55-6.168 8.55H98.025c-4.484 0-7.621-4.433-6.13-8.662l8.775-24.883z"/><rect x="65.305" y="247.789" width="107.871" height="17.145" rx="8.573" fill="#35CE69" stroke="#242321"/><path d="M228.689 107.304c-17.393 48.23-67.16 63.522-93.897 57.036l9.009-22.262c16.635 4.419 53.34.501 73.047-48.192 17.418-43.04 61.148-47.244 80.151-40.141l-7.808 19.293s-43.109-13.964-60.502 34.266z" fill="#DEA68F" stroke="#242321"/><path d="M218.321 94.343c-17.393 48.23-67.16 63.522-93.897 57.036l9.009-22.262c16.635 4.419 53.34.501 73.047-48.192 17.418-43.04 61.148-47.244 80.151-40.141l-7.808 19.293s-43.109-13.963-60.502 34.266z" fill="#242321" stroke="#242321"/><rect x="212.058" y="101.628" width="11.961" height="63.804" rx="5.98" transform="rotate(180 212.058 101.628)" fill="#fff" stroke="#242321"/></svg>