<svg width="192" height="50" fill="none" xmlns="http://www.w3.org/2000/svg"><path d="M76.459.07v13.1h13.98v-3.046h-9.93V7.976h9.525V4.983h-9.526V3.046h9.755V.07H76.459z" fill="url(#paint0_linear_62:734)"/><path d="M97.092 13.17h4.138v-10h5.652V.07H91.458v3.1h5.634v10z" fill="url(#paint1_linear_62:734)"/><path d="M108.372.07v13.1h4.05V4.49l8.891 8.68h4.05V.07h-4.05v8.24L112.95.07h-4.578z" fill="url(#paint2_linear_62:734)"/><path d="M137.866 7.817h-4.965l2.429-4.912 2.536 4.912zm2.746 5.353h4.42L138.024.07h-5.317l-6.62 13.1h4.172l1.18-2.395h7.941l1.232 2.395z" fill="url(#paint3_linear_62:734)"/><path d="M85.034 31.74c4.05 0 5.74-1.62 6.303-2.272.229.546.475 1.567.528 2.043h2.465v-7.342h-9.226v2.482h5.141v.035c0 .37-1.18 1.867-5.07 1.867-3.61 0-4.948-1.814-4.948-3.522v-.193c0-1.814.986-3.54 4.983-3.54 4.085 0 4.56 1.568 4.666 1.867h4.366v-.018c-.07-1.778-1.356-4.965-8.68-4.965h-.757c-7.536 0-8.874 3.927-8.874 6.48v.493c0 2.623 1.637 6.585 8.733 6.585h.37z" fill="url(#paint4_linear_62:734)"/><path d="M100.301 21.387h6.215c1.197 0 1.655.58 1.655 1.267v.018c0 .722-.475 1.285-1.655 1.285h-6.215v-2.57zm0 5.476h5.352c2.025 0 2.729.704 2.729 2.306v1.514c0 .476.071.67.194.828h4.173v-.088c-.123-.211-.247-.546-.247-1.602V27.9c0-1.69-1.144-2.623-2.482-3.01.863-.282 2.43-.986 2.43-2.87v-.212c0-1.884-1.321-3.398-5.688-3.398H96.198v13.1h4.103v-4.648z" fill="url(#paint5_linear_62:734)"/><path d="M122.813 18.182c-8.293 0-9.226 4.138-9.226 6.48v.528c0 2.306.933 6.55 9.226 6.55h.757c8.258 0 9.208-4.244 9.208-6.55v-.528c0-2.342-.968-6.48-9.208-6.48h-.757zm5.669 6.85c0 1.514-.898 3.52-5.299 3.52-4.437 0-5.3-2.06-5.3-3.556v-.211c0-1.497.792-3.434 5.3-3.434 4.437 0 5.299 1.937 5.299 3.434v.246z" fill="url(#paint6_linear_62:734)"/><path d="M142.895 31.704c6.708 0 8.046-4.472 8.046-6.937v-6.356h-4.102v6.11c0 1.69-.775 3.785-4.296 3.785-3.575 0-4.332-2.095-4.332-3.785v-6.11h-4.12v6.356c0 2.465 1.145 6.938 8.17 6.938h.634z" fill="url(#paint7_linear_62:734)"/><path d="M162.61 27.144c4.684 0 6.11-1.954 6.11-4.296v-.176c0-2.395-1.391-4.261-6.11-4.261h-9.825v13.1h4.103v-4.367h5.722zm-5.722-5.757h5.652c1.32 0 1.901.493 1.901 1.39v.053c0 .898-.616 1.374-1.901 1.374h-5.652v-2.817z" fill="url(#paint8_linear_62:734)"/><path fill-rule="evenodd" clip-rule="evenodd" d="M66.394 49.887H0L33.487 0l13.275 20.125h-7.525l-5.85-8.787-10.56 15.59h11.232l4.168 6.236H18.602L11.497 43.65h43.4l-3.961-5.95h7.42l8.039 12.188z" fill="url(#paint9_linear_62:734)"/><path d="M76.044 48.654l.524-.544a4.2 4.2 0 001.18.894c.425.198.87.298 1.336.298.562 0 1.024-.134 1.387-.401s.544-.606.544-1.017c0-.37-.13-.654-.39-.852-.254-.199-.675-.346-1.264-.442l-1.037-.164c-.692-.11-1.202-.312-1.53-.606-.329-.301-.493-.706-.493-1.212 0-.596.233-1.079.698-1.448.466-.37 1.075-.555 1.828-.555.5 0 .997.082 1.49.247.493.164.941.4 1.345.708l-.452.616a4.728 4.728 0 00-1.191-.667 3.476 3.476 0 00-1.223-.226c-.513 0-.93.12-1.253.36-.315.232-.472.533-.472.903 0 .336.113.593.339.77.226.178.6.309 1.12.39l1.027.165c.78.13 1.349.353 1.704.668.363.315.545.75.545 1.304 0 .315-.069.606-.206.873-.13.26-.318.486-.564.678a2.84 2.84 0 01-.873.442 3.778 3.778 0 01-1.11.154 4.13 4.13 0 01-1.643-.34 4.063 4.063 0 01-1.366-.995zm7.247 1.233v-7.19h5.146v.699h-4.355v2.516h2.845v.688h-2.845v2.589h4.396v.698H83.29zm9.699-.617c.445 0 .87-.085 1.273-.256a2.908 2.908 0 001.017-.73l.513.535A3.872 3.872 0 0192.97 50a3.77 3.77 0 01-1.469-.288 3.776 3.776 0 01-1.18-.78 3.688 3.688 0 01-1.08-2.64c0-.513.097-.996.288-1.448.192-.459.456-.852.791-1.181a3.69 3.69 0 012.65-1.079c.555 0 1.079.107 1.572.319.5.205.924.493 1.273.863l-.524.554a2.907 2.907 0 00-1.047-.74 3.172 3.172 0 00-1.274-.266c-.41 0-.798.078-1.16.236a2.825 2.825 0 00-1.54 1.571 3 3 0 00-.227 1.171c0 .418.075.812.226 1.181.15.363.356.678.616.945.267.26.579.47.935.627.363.15.753.226 1.17.226zm10.206-2.423c0 .959-.271 1.725-.812 2.3-.534.569-1.253.853-2.157.853-.91 0-1.633-.284-2.167-.852-.534-.569-.801-1.336-.801-2.301v-4.15h.79v4.15c0 .733.2 1.321.596 1.766.398.439.925.658 1.582.658.658 0 1.185-.22 1.582-.658.397-.445.596-1.033.596-1.766v-4.15h.791v4.15zm1.849 3.04v-7.19h3.082c.698 0 1.263.192 1.694.576.432.376.647.873.647 1.489 0 .472-.14.88-.421 1.222-.274.343-.643.579-1.109.709l1.613 3.194h-.874l-1.54-3.092h-2.301v3.092h-.791zm3.03-6.48h-2.239v2.72h2.239c.48 0 .866-.122 1.161-.369.294-.253.441-.585.441-.996 0-.411-.147-.74-.441-.986-.295-.247-.681-.37-1.161-.37zm4.001 6.48v-7.19h.791v7.19h-.791zm2.172-6.481v-.709h5.988v.71h-2.599v6.48h-.791v-6.48h-2.598zm9.561 6.481V46.96l-2.855-4.263h.925l2.352 3.564 2.341-3.564h.894l-2.866 4.294v2.896h-.791zm6.815-1.233l.524-.544c.37.39.764.688 1.181.894.425.198.87.298 1.336.298.561 0 1.023-.134 1.386-.401s.544-.606.544-1.017c0-.37-.13-.654-.39-.852-.253-.199-.674-.346-1.263-.442l-1.038-.164c-.691-.11-1.201-.312-1.53-.606-.329-.301-.493-.706-.493-1.212 0-.596.233-1.079.699-1.448.465-.37 1.075-.555 1.828-.555.5 0 .996.082 1.489.247.493.164.942.4 1.345.708l-.451.616a4.743 4.743 0 00-1.192-.667 3.474 3.474 0 00-1.222-.226c-.514 0-.931.12-1.253.36-.315.232-.473.533-.473.903 0 .336.113.593.339.77.226.178.599.309 1.12.39l1.027.165c.781.13 1.349.353 1.705.668.363.315.544.75.544 1.304 0 .315-.068.606-.205.873-.13.26-.319.486-.565.678a2.84 2.84 0 01-.873.442 3.778 3.778 0 01-1.109.154 4.133 4.133 0 01-1.644-.34 4.074 4.074 0 01-1.366-.995zm14.314-2.362c0 .514-.096 1-.288 1.459a3.67 3.67 0 01-.791 1.18 3.652 3.652 0 01-1.17.781 3.672 3.672 0 01-1.449.288 3.745 3.745 0 01-2.639-1.068 3.739 3.739 0 01-1.068-2.64c0-.513.095-.996.287-1.448.192-.459.452-.852.781-1.181.335-.336.729-.6 1.181-.791a3.745 3.745 0 011.458-.288c.514 0 .997.096 1.449.288a3.57 3.57 0 011.17.79c.336.33.6.723.791 1.182.192.452.288.935.288 1.448zm-.801 0c0-.418-.076-.808-.226-1.17a2.834 2.834 0 00-.616-.946 2.686 2.686 0 00-.915-.626 2.786 2.786 0 00-1.14-.236c-.41 0-.794.078-1.15.236-.356.15-.664.36-.924.626a2.89 2.89 0 00-.606.945 3.017 3.017 0 00-.226 1.171c0 .418.075.808.226 1.171.15.363.352.678.606.945.26.267.568.48.924.637.356.15.74.226 1.15.226.404 0 .784-.075 1.14-.226.357-.158.661-.37.915-.637a3.034 3.034 0 00.842-2.115zm2.45 3.595v-7.19h.791v6.481h4.283v.709h-5.074zm12.031-3.04c0 .959-.27 1.725-.811 2.3-.534.569-1.253.853-2.157.853-.911 0-1.633-.284-2.167-.852-.534-.569-.801-1.336-.801-2.301v-4.15h.791v4.15c0 .733.198 1.321.595 1.766.398.439.925.658 1.582.658.658 0 1.185-.22 1.582-.658.397-.445.596-1.033.596-1.766v-4.15h.79v4.15zm1.234-3.441v-.709h5.988v.71h-2.599v6.48h-.79v-6.48h-2.599zm7.366 6.481v-7.19h.791v7.19h-.791zm9.854-3.595a3.687 3.687 0 01-1.078 2.64 3.657 3.657 0 01-1.171.78 3.671 3.671 0 01-1.448.288 3.746 3.746 0 01-2.64-1.068 3.775 3.775 0 01-.78-1.181 3.74 3.74 0 01-.288-1.459c0-.513.096-.996.288-1.448.191-.459.452-.852.78-1.181a3.705 3.705 0 012.64-1.079 3.666 3.666 0 013.41 2.26c.192.452.287.935.287 1.448zm-.801 0c0-.418-.075-.808-.226-1.17a2.818 2.818 0 00-.616-.946 2.682 2.682 0 00-.914-.626 2.786 2.786 0 00-1.14-.236 2.81 2.81 0 00-1.15.236c-.356.15-.665.36-.925.626-.253.26-.455.576-.606.945-.15.363-.226.753-.226 1.171a3.077 3.077 0 00.832 2.116c.26.267.569.48.925.637.356.15.739.226 1.15.226.404 0 .784-.075 1.14-.226.356-.158.661-.37.914-.637a3.017 3.017 0 00.842-2.116zm2.451-3.595h.791l4.324 5.834v-5.834h.75v7.19h-.699l-4.416-5.988v5.988h-.75v-7.19zm7.175 5.957l.524-.544c.37.39.763.688 1.181.894.425.198.87.298 1.335.298.562 0 1.024-.134 1.387-.401s.544-.606.544-1.017c0-.37-.13-.654-.39-.852-.253-.199-.674-.346-1.263-.442l-1.038-.164c-.691-.11-1.201-.312-1.53-.606-.329-.301-.493-.706-.493-1.212 0-.596.233-1.079.698-1.448.466-.37 1.075-.555 1.829-.555.499 0 .996.082 1.489.247.493.164.941.4 1.345.708l-.452.616a4.72 4.72 0 00-1.191-.667 3.474 3.474 0 00-1.222-.226c-.514 0-.931.12-1.253.36-.315.232-.473.533-.473.903 0 .336.113.593.339.77.226.178.599.309 1.12.39l1.027.165c.78.13 1.349.353 1.705.668.363.315.544.75.544 1.304 0 .315-.068.606-.205.873-.13.26-.319.486-.565.678a2.84 2.84 0 01-.873.442 3.778 3.778 0 01-1.109.154 4.13 4.13 0 01-1.644-.34 4.064 4.064 0 01-1.366-.995z" fill="#C7C4C4"/><defs><linearGradient id="paint0_linear_62:734" x1="75.454" y1="15.004" x2="169.359" y2="15.004" gradientUnits="userSpaceOnUse"><stop stop-color="gray"/><stop offset=".533" stop-color="snow"/><stop offset=".599" stop-color="#F6F1F1"/><stop offset=".707" stop-color="#DEDADA"/><stop offset=".843" stop-color="#B6B4B4"/><stop offset="1" stop-color="gray"/></linearGradient><linearGradient id="paint1_linear_62:734" x1="75.454" y1="15.004" x2="169.359" y2="15.004" gradientUnits="userSpaceOnUse"><stop stop-color="gray"/><stop offset=".533" stop-color="snow"/><stop offset=".599" stop-color="#F6F1F1"/><stop offset=".707" stop-color="#DEDADA"/><stop offset=".843" stop-color="#B6B4B4"/><stop offset="1" stop-color="gray"/></linearGradient><linearGradient id="paint2_linear_62:734" x1="75.454" y1="15.004" x2="169.359" y2="15.004" gradientUnits="userSpaceOnUse"><stop stop-color="gray"/><stop offset=".533" stop-color="snow"/><stop offset=".599" stop-color="#F6F1F1"/><stop offset=".707" stop-color="#DEDADA"/><stop offset=".843" stop-color="#B6B4B4"/><stop offset="1" stop-color="gray"/></linearGradient><linearGradient id="paint3_linear_62:734" x1="75.454" y1="15.004" x2="169.359" y2="15.004" gradientUnits="userSpaceOnUse"><stop stop-color="gray"/><stop offset=".533" stop-color="snow"/><stop offset=".599" stop-color="#F6F1F1"/><stop offset=".707" stop-color="#DEDADA"/><stop offset=".843" stop-color="#B6B4B4"/><stop offset="1" stop-color="gray"/></linearGradient><linearGradient id="paint4_linear_62:734" x1="75.454" y1="15.004" x2="169.359" y2="15.004" gradientUnits="userSpaceOnUse"><stop stop-color="gray"/><stop offset=".533" stop-color="snow"/><stop offset=".599" stop-color="#F6F1F1"/><stop offset=".707" stop-color="#DEDADA"/><stop offset=".843" stop-color="#B6B4B4"/><stop offset="1" stop-color="gray"/></linearGradient><linearGradient id="paint5_linear_62:734" x1="75.454" y1="15.004" x2="169.359" y2="15.004" gradientUnits="userSpaceOnUse"><stop stop-color="gray"/><stop offset=".533" stop-color="snow"/><stop offset=".599" stop-color="#F6F1F1"/><stop offset=".707" stop-color="#DEDADA"/><stop offset=".843" stop-color="#B6B4B4"/><stop offset="1" stop-color="gray"/></linearGradient><linearGradient id="paint6_linear_62:734" x1="75.454" y1="15.004" x2="169.359" y2="15.004" gradientUnits="userSpaceOnUse"><stop stop-color="gray"/><stop offset=".533" stop-color="snow"/><stop offset=".599" stop-color="#F6F1F1"/><stop offset=".707" stop-color="#DEDADA"/><stop offset=".843" stop-color="#B6B4B4"/><stop offset="1" stop-color="gray"/></linearGradient><linearGradient id="paint7_linear_62:734" x1="75.454" y1="15.004" x2="169.359" y2="15.004" gradientUnits="userSpaceOnUse"><stop stop-color="gray"/><stop offset=".533" stop-color="snow"/><stop offset=".599" stop-color="#F6F1F1"/><stop offset=".707" stop-color="#DEDADA"/><stop offset=".843" stop-color="#B6B4B4"/><stop offset="1" stop-color="gray"/></linearGradient><linearGradient id="paint8_linear_62:734" x1="75.454" y1="15.004" x2="169.359" y2="15.004" gradientUnits="userSpaceOnUse"><stop stop-color="gray"/><stop offset=".533" stop-color="snow"/><stop offset=".599" stop-color="#F6F1F1"/><stop offset=".707" stop-color="#DEDADA"/><stop offset=".843" stop-color="#B6B4B4"/><stop offset="1" stop-color="gray"/></linearGradient><linearGradient id="paint9_linear_62:734" x1="-.001" y1="24.944" x2="66.393" y2="24.944" gradientUnits="userSpaceOnUse"><stop stop-color="gray"/><stop offset=".533" stop-color="snow"/><stop offset=".599" stop-color="#F6F1F1"/><stop offset=".707" stop-color="#DEDADA"/><stop offset=".843" stop-color="#B6B4B4"/><stop offset="1" stop-color="gray"/></linearGradient></defs></svg>