<svg width="24" height="24" fill="none" xmlns="http://www.w3.org/2000/svg"><path d="M12.582 17.785l2.762-2.762 4.565 3.184-1.024 1.024a2.625 2.625 0 01-2.608.66c-2.825-.845-5.364-2.393-7.615-4.644-2.251-2.25-3.799-4.79-4.643-7.615a2.625 2.625 0 01.66-2.608L5.701 4l3.184 4.565-2.762 2.763" stroke="#338EF9" stroke-linecap="round"/><path d="M8.901 8.541l-3.188-4.54c-.223.217-.694.674-.793.761-.125.109-.996 1.104-.996 2.349 0 .995 1.286 3.359 1.929 4.416L8.9 8.541zm6.649 6.482l4.54 3.189c-.217.222-.674.693-.761.793-.11.124-1.105.995-2.349.995-.995 0-3.359-1.286-4.417-1.928l2.986-3.049z" fill="#338EF9"/></svg>